<svg width="18" height="18" viewBox="0 0 18 18" fill="none" xmlns="http://www.w3.org/2000/svg">
<path d="M5.25 2.25H12.75C15 2.25 16.5 3.375 16.5 6V12C16.5 14.625 15 15.75 12.75 15.75H5.25C3 15.75 1.5 14.625 1.5 12L1.5 6C1.5 3.375 3 2.25 5.25 2.25Z" stroke="#9C9CA4" stroke-miterlimit="10" stroke-linecap="round" stroke-linejoin="round"/>
<path d="M3.75 12.375H6L4.5 11.25L6.75 12.375C7.575 12.375 7.21857 11.0438 7.21857 10.2188L6.09357 13.5938" stroke="#9C9CA4" stroke-width="0.2" stroke-miterlimit="10" stroke-linecap="round" stroke-linejoin="round"/>
<path d="M3.75 8.25H11.25" stroke="#9C9CA4" stroke-width="0.5" stroke-miterlimit="10" stroke-linecap="round" stroke-linejoin="round"/>
<path d="M12 13.5H13.5" stroke="#9C9CA4" stroke-width="0.5" stroke-miterlimit="10" stroke-linecap="round" stroke-linejoin="round"/>
<path d="M12 12.75H13.5" stroke="#9C9CA4" stroke-width="0.5" stroke-miterlimit="10" stroke-linecap="round" stroke-linejoin="round"/>
<path d="M6 4.5L12 4.5" stroke="#9C9CA4" stroke-width="0.5" stroke-miterlimit="10" stroke-linecap="round" stroke-linejoin="round"/>
<path d="M13.5 6.75L3.75 6.75" stroke="#9C9CA4" stroke-width="0.5" stroke-miterlimit="10" stroke-linecap="round" stroke-linejoin="round"/>
</svg>
