<svg width="44" height="44" viewBox="0 0 44 44" fill="none" xmlns="http://www.w3.org/2000/svg">
    <path d="M18.4248 4.63803L7.38813 11.843C3.84979 14.153 3.84979 19.323 7.38813 21.633L18.4248 28.838C20.4048 30.1397 23.6681 30.1397 25.6481 28.838L36.6298 21.633C40.1498 19.323 40.1498 14.1714 36.6298 11.8614L25.6481 4.65637C23.6681 3.33637 20.4048 3.33637 18.4248 4.63803Z" stroke="#2C3439" stroke-width="1.5" stroke-linecap="round" stroke-linejoin="round"/>
    <path d="M10.3216 23.9805L10.3032 32.5788C10.3032 34.9071 12.0999 37.4005 14.2999 38.1338L20.1482 40.0771C21.1566 40.4071 22.8249 40.4071 23.8516 40.0771L29.6999 38.1338C31.8999 37.4005 33.6966 34.9071 33.6966 32.5788V24.0721" stroke="#2C3439" stroke-width="1.5" stroke-linecap="round" stroke-linejoin="round"/>
    <path d="M39.2334 27.5V16.5" stroke="#2C3439" stroke-width="1.5" stroke-linecap="round" stroke-linejoin="round"/>
    </svg>
    