<svg width="424" height="312" viewBox="0 0 424 312" fill="none" xmlns="http://www.w3.org/2000/svg">
<circle opacity="0.3" cx="198" cy="142" r="2" fill="#2C3439"/>
<circle opacity="0.3" cx="198" cy="114" r="2" fill="#2C3439"/>
<circle opacity="0.3" cx="198" cy="86" r="2" fill="#2C3439"/>
<circle opacity="0.3" cx="198" cy="58" r="2" fill="#2C3439"/>
<circle opacity="0.3" cx="198" cy="30" r="2" fill="#2C3439"/>
<circle opacity="0.3" cx="198" cy="2" r="2" fill="#2C3439"/>
<circle opacity="0.3" cx="170" cy="142" r="2" fill="#2C3439"/>
<circle opacity="0.3" cx="170" cy="114" r="2" fill="#2C3439"/>
<circle opacity="0.3" cx="170" cy="86" r="2" fill="#2C3439"/>
<circle opacity="0.3" cx="170" cy="58" r="2" fill="#2C3439"/>
<circle opacity="0.3" cx="170" cy="30" r="2" fill="#2C3439"/>
<circle opacity="0.3" cx="170" cy="2" r="2" fill="#2C3439"/>
<circle opacity="0.3" cx="142" cy="142" r="2" fill="#2C3439"/>
<circle opacity="0.3" cx="142" cy="114" r="2" fill="#2C3439"/>
<circle opacity="0.3" cx="142" cy="86" r="2" fill="#2C3439"/>
<circle opacity="0.3" cx="142" cy="58" r="2" fill="#2C3439"/>
<circle opacity="0.3" cx="142" cy="30" r="2" fill="#2C3439"/>
<circle opacity="0.3" cx="142" cy="2" r="2" fill="#2C3439"/>
<circle opacity="0.3" cx="114" cy="142" r="2" fill="#2C3439"/>
<circle opacity="0.3" cx="114" cy="114" r="2" fill="#2C3439"/>
<circle opacity="0.3" cx="114" cy="86" r="2" fill="#2C3439"/>
<circle opacity="0.3" cx="114" cy="58" r="2" fill="#2C3439"/>
<circle opacity="0.3" cx="114" cy="30" r="2" fill="#2C3439"/>
<circle opacity="0.3" cx="114" cy="2" r="2" fill="#2C3439"/>
<circle opacity="0.3" cx="86" cy="142" r="2" fill="#2C3439"/>
<circle opacity="0.3" cx="86" cy="114" r="2" fill="#2C3439"/>
<circle opacity="0.3" cx="86" cy="86" r="2" fill="#2C3439"/>
<circle opacity="0.3" cx="86" cy="58" r="2" fill="#2C3439"/>
<circle opacity="0.3" cx="86" cy="30" r="2" fill="#2C3439"/>
<circle opacity="0.3" cx="86" cy="2" r="2" fill="#2C3439"/>
<circle opacity="0.3" cx="58" cy="142" r="2" fill="#2C3439"/>
<circle opacity="0.3" cx="58" cy="114" r="2" fill="#2C3439"/>
<circle opacity="0.3" cx="58" cy="86" r="2" fill="#2C3439"/>
<circle opacity="0.3" cx="58" cy="58" r="2" fill="#2C3439"/>
<circle opacity="0.3" cx="58" cy="30" r="2" fill="#2C3439"/>
<circle opacity="0.3" cx="58" cy="2" r="2" fill="#2C3439"/>
<circle opacity="0.3" cx="30" cy="142" r="2" fill="#2C3439"/>
<circle opacity="0.3" cx="30" cy="114" r="2" fill="#2C3439"/>
<circle opacity="0.3" cx="30" cy="86" r="2" fill="#2C3439"/>
<circle opacity="0.3" cx="30" cy="58" r="2" fill="#2C3439"/>
<circle opacity="0.3" cx="30" cy="30" r="2" fill="#2C3439"/>
<circle opacity="0.3" cx="30" cy="2" r="2" fill="#2C3439"/>
<circle opacity="0.3" cx="2" cy="142" r="2" fill="#2C3439"/>
<circle opacity="0.3" cx="2" cy="114" r="2" fill="#2C3439"/>
<circle opacity="0.3" cx="2" cy="86" r="2" fill="#2C3439"/>
<circle opacity="0.3" cx="2" cy="58" r="2" fill="#2C3439"/>
<circle opacity="0.3" cx="2" cy="30" r="2" fill="#2C3439"/>
<circle opacity="0.3" cx="2" cy="2" r="2" fill="#2C3439"/>
<circle opacity="0.3" cx="422" cy="142" r="2" fill="#2C3439"/>
<circle opacity="0.3" cx="422" cy="310" r="2" fill="#2C3439"/>
<circle opacity="0.3" cx="198" cy="310" r="2" fill="#2C3439"/>
<circle opacity="0.3" cx="422" cy="114" r="2" fill="#2C3439"/>
<circle opacity="0.3" cx="422" cy="282" r="2" fill="#2C3439"/>
<circle opacity="0.3" cx="198" cy="282" r="2" fill="#2C3439"/>
<circle opacity="0.3" cx="422" cy="86" r="2" fill="#2C3439"/>
<circle opacity="0.3" cx="422" cy="254" r="2" fill="#2C3439"/>
<circle opacity="0.3" cx="198" cy="254" r="2" fill="#2C3439"/>
<circle opacity="0.3" cx="422" cy="58" r="2" fill="#2C3439"/>
<circle opacity="0.3" cx="422" cy="226" r="2" fill="#2C3439"/>
<circle opacity="0.3" cx="198" cy="226" r="2" fill="#2C3439"/>
<circle opacity="0.3" cx="422" cy="30" r="2" fill="#2C3439"/>
<circle opacity="0.3" cx="422" cy="198" r="2" fill="#2C3439"/>
<circle opacity="0.3" cx="198" cy="198" r="2" fill="#2C3439"/>
<circle opacity="0.3" cx="422" cy="2" r="2" fill="#2C3439"/>
<circle opacity="0.3" cx="422" cy="170" r="2" fill="#2C3439"/>
<circle opacity="0.3" cx="198" cy="170" r="2" fill="#2C3439"/>
<circle opacity="0.3" cx="394" cy="142" r="2" fill="#2C3439"/>
<circle opacity="0.3" cx="394" cy="310" r="2" fill="#2C3439"/>
<circle opacity="0.3" cx="170" cy="310" r="2" fill="#2C3439"/>
<circle opacity="0.3" cx="394" cy="114" r="2" fill="#2C3439"/>
<circle opacity="0.3" cx="394" cy="282" r="2" fill="#2C3439"/>
<circle opacity="0.3" cx="170" cy="282" r="2" fill="#2C3439"/>
<circle opacity="0.3" cx="394" cy="86" r="2" fill="#2C3439"/>
<circle opacity="0.3" cx="394" cy="254" r="2" fill="#2C3439"/>
<circle opacity="0.3" cx="170" cy="254" r="2" fill="#2C3439"/>
<circle opacity="0.3" cx="394" cy="58" r="2" fill="#2C3439"/>
<circle opacity="0.3" cx="394" cy="226" r="2" fill="#2C3439"/>
<circle opacity="0.3" cx="170" cy="226" r="2" fill="#2C3439"/>
<circle opacity="0.3" cx="394" cy="30" r="2" fill="#2C3439"/>
<circle opacity="0.3" cx="394" cy="198" r="2" fill="#2C3439"/>
<circle opacity="0.3" cx="170" cy="198" r="2" fill="#2C3439"/>
<circle opacity="0.3" cx="394" cy="2" r="2" fill="#2C3439"/>
<circle opacity="0.3" cx="394" cy="170" r="2" fill="#2C3439"/>
<circle opacity="0.3" cx="170" cy="170" r="2" fill="#2C3439"/>
<circle opacity="0.3" cx="366" cy="142" r="2" fill="#2C3439"/>
<circle opacity="0.3" cx="366" cy="310" r="2" fill="#2C3439"/>
<circle opacity="0.3" cx="142" cy="310" r="2" fill="#2C3439"/>
<circle opacity="0.3" cx="366" cy="114" r="2" fill="#2C3439"/>
<circle opacity="0.3" cx="366" cy="282" r="2" fill="#2C3439"/>
<circle opacity="0.3" cx="142" cy="282" r="2" fill="#2C3439"/>
<circle opacity="0.3" cx="366" cy="86" r="2" fill="#2C3439"/>
<circle opacity="0.3" cx="366" cy="254" r="2" fill="#2C3439"/>
<circle opacity="0.3" cx="142" cy="254" r="2" fill="#2C3439"/>
<circle opacity="0.3" cx="366" cy="58" r="2" fill="#2C3439"/>
<circle opacity="0.3" cx="366" cy="226" r="2" fill="#2C3439"/>
<circle opacity="0.3" cx="142" cy="226" r="2" fill="#2C3439"/>
<circle opacity="0.3" cx="366" cy="30" r="2" fill="#2C3439"/>
<circle opacity="0.3" cx="366" cy="198" r="2" fill="#2C3439"/>
<circle opacity="0.3" cx="142" cy="198" r="2" fill="#2C3439"/>
<circle opacity="0.3" cx="366" cy="2" r="2" fill="#2C3439"/>
<circle opacity="0.3" cx="366" cy="170" r="2" fill="#2C3439"/>
<circle opacity="0.3" cx="142" cy="170" r="2" fill="#2C3439"/>
<circle opacity="0.3" cx="338" cy="142" r="2" fill="#2C3439"/>
<circle opacity="0.3" cx="338" cy="310" r="2" fill="#2C3439"/>
<circle opacity="0.3" cx="114" cy="310" r="2" fill="#2C3439"/>
<circle opacity="0.3" cx="338" cy="114" r="2" fill="#2C3439"/>
<circle opacity="0.3" cx="338" cy="282" r="2" fill="#2C3439"/>
<circle opacity="0.3" cx="114" cy="282" r="2" fill="#2C3439"/>
<circle opacity="0.3" cx="338" cy="86" r="2" fill="#2C3439"/>
<circle opacity="0.3" cx="338" cy="254" r="2" fill="#2C3439"/>
<circle opacity="0.3" cx="114" cy="254" r="2" fill="#2C3439"/>
<circle opacity="0.3" cx="338" cy="58" r="2" fill="#2C3439"/>
<circle opacity="0.3" cx="338" cy="226" r="2" fill="#2C3439"/>
<circle opacity="0.3" cx="114" cy="226" r="2" fill="#2C3439"/>
<circle opacity="0.3" cx="338" cy="30" r="2" fill="#2C3439"/>
<circle opacity="0.3" cx="338" cy="198" r="2" fill="#2C3439"/>
<circle opacity="0.3" cx="114" cy="198" r="2" fill="#2C3439"/>
<circle opacity="0.3" cx="338" cy="2" r="2" fill="#2C3439"/>
<circle opacity="0.3" cx="338" cy="170" r="2" fill="#2C3439"/>
<circle opacity="0.3" cx="114" cy="170" r="2" fill="#2C3439"/>
<circle opacity="0.3" cx="310" cy="142" r="2" fill="#2C3439"/>
<circle opacity="0.3" cx="310" cy="310" r="2" fill="#2C3439"/>
<circle opacity="0.3" cx="86" cy="310" r="2" fill="#2C3439"/>
<circle opacity="0.3" cx="310" cy="114" r="2" fill="#2C3439"/>
<circle opacity="0.3" cx="310" cy="282" r="2" fill="#2C3439"/>
<circle opacity="0.3" cx="86" cy="282" r="2" fill="#2C3439"/>
<circle opacity="0.3" cx="310" cy="86" r="2" fill="#2C3439"/>
<circle opacity="0.3" cx="310" cy="254" r="2" fill="#2C3439"/>
<circle opacity="0.3" cx="86" cy="254" r="2" fill="#2C3439"/>
<circle opacity="0.3" cx="310" cy="58" r="2" fill="#2C3439"/>
<circle opacity="0.3" cx="310" cy="226" r="2" fill="#2C3439"/>
<circle opacity="0.3" cx="86" cy="226" r="2" fill="#2C3439"/>
<circle opacity="0.3" cx="310" cy="30" r="2" fill="#2C3439"/>
<circle opacity="0.3" cx="310" cy="198" r="2" fill="#2C3439"/>
<circle opacity="0.3" cx="86" cy="198" r="2" fill="#2C3439"/>
<circle opacity="0.3" cx="310" cy="2" r="2" fill="#2C3439"/>
<circle opacity="0.3" cx="310" cy="170" r="2" fill="#2C3439"/>
<circle opacity="0.3" cx="86" cy="170" r="2" fill="#2C3439"/>
<circle opacity="0.3" cx="282" cy="142" r="2" fill="#2C3439"/>
<circle opacity="0.3" cx="282" cy="310" r="2" fill="#2C3439"/>
<circle opacity="0.3" cx="58" cy="310" r="2" fill="#2C3439"/>
<circle opacity="0.3" cx="282" cy="114" r="2" fill="#2C3439"/>
<circle opacity="0.3" cx="282" cy="282" r="2" fill="#2C3439"/>
<circle opacity="0.3" cx="58" cy="282" r="2" fill="#2C3439"/>
<circle opacity="0.3" cx="282" cy="86" r="2" fill="#2C3439"/>
<circle opacity="0.3" cx="282" cy="254" r="2" fill="#2C3439"/>
<circle opacity="0.3" cx="58" cy="254" r="2" fill="#2C3439"/>
<circle opacity="0.3" cx="282" cy="58" r="2" fill="#2C3439"/>
<circle opacity="0.3" cx="282" cy="226" r="2" fill="#2C3439"/>
<circle opacity="0.3" cx="58" cy="226" r="2" fill="#2C3439"/>
<circle opacity="0.3" cx="282" cy="30" r="2" fill="#2C3439"/>
<circle opacity="0.3" cx="282" cy="198" r="2" fill="#2C3439"/>
<circle opacity="0.3" cx="58" cy="198" r="2" fill="#2C3439"/>
<circle opacity="0.3" cx="282" cy="2" r="2" fill="#2C3439"/>
<circle opacity="0.3" cx="282" cy="170" r="2" fill="#2C3439"/>
<circle opacity="0.3" cx="58" cy="170" r="2" fill="#2C3439"/>
<circle opacity="0.3" cx="254" cy="142" r="2" fill="#2C3439"/>
<circle opacity="0.3" cx="254" cy="310" r="2" fill="#2C3439"/>
<circle opacity="0.3" cx="30" cy="310" r="2" fill="#2C3439"/>
<circle opacity="0.3" cx="254" cy="114" r="2" fill="#2C3439"/>
<circle opacity="0.3" cx="254" cy="282" r="2" fill="#2C3439"/>
<circle opacity="0.3" cx="30" cy="282" r="2" fill="#2C3439"/>
<circle opacity="0.3" cx="254" cy="86" r="2" fill="#2C3439"/>
<circle opacity="0.3" cx="254" cy="254" r="2" fill="#2C3439"/>
<circle opacity="0.3" cx="30" cy="254" r="2" fill="#2C3439"/>
<circle opacity="0.3" cx="254" cy="58" r="2" fill="#2C3439"/>
<circle opacity="0.3" cx="254" cy="226" r="2" fill="#2C3439"/>
<circle opacity="0.3" cx="30" cy="226" r="2" fill="#2C3439"/>
<circle opacity="0.3" cx="254" cy="30" r="2" fill="#2C3439"/>
<circle opacity="0.3" cx="254" cy="198" r="2" fill="#2C3439"/>
<circle opacity="0.3" cx="30" cy="198" r="2" fill="#2C3439"/>
<circle opacity="0.3" cx="254" cy="2" r="2" fill="#2C3439"/>
<circle opacity="0.3" cx="254" cy="170" r="2" fill="#2C3439"/>
<circle opacity="0.3" cx="30" cy="170" r="2" fill="#2C3439"/>
<circle opacity="0.3" cx="226" cy="142" r="2" fill="#2C3439"/>
<circle opacity="0.3" cx="226" cy="310" r="2" fill="#2C3439"/>
<circle opacity="0.3" cx="2" cy="310" r="2" fill="#2C3439"/>
<circle opacity="0.3" cx="226" cy="114" r="2" fill="#2C3439"/>
<circle opacity="0.3" cx="226" cy="282" r="2" fill="#2C3439"/>
<circle opacity="0.3" cx="2" cy="282" r="2" fill="#2C3439"/>
<circle opacity="0.3" cx="226" cy="86" r="2" fill="#2C3439"/>
<circle opacity="0.3" cx="226" cy="254" r="2" fill="#2C3439"/>
<circle opacity="0.3" cx="2" cy="254" r="2" fill="#2C3439"/>
<circle opacity="0.3" cx="226" cy="58" r="2" fill="#2C3439"/>
<circle opacity="0.3" cx="226" cy="226" r="2" fill="#2C3439"/>
<circle opacity="0.3" cx="2" cy="226" r="2" fill="#2C3439"/>
<circle opacity="0.3" cx="226" cy="30" r="2" fill="#2C3439"/>
<circle opacity="0.3" cx="226" cy="198" r="2" fill="#2C3439"/>
<circle opacity="0.3" cx="2" cy="198" r="2" fill="#2C3439"/>
<circle opacity="0.3" cx="226" cy="2" r="2" fill="#2C3439"/>
<circle opacity="0.3" cx="226" cy="170" r="2" fill="#2C3439"/>
<circle opacity="0.3" cx="2" cy="170" r="2" fill="#2C3439"/>
</svg>
