<svg width="73" height="73" viewBox="0 0 73 73" fill="none" xmlns="http://www.w3.org/2000/svg">
    <path d="M27.3752 66.9173H45.6252C60.8335 66.9173 66.9168 60.834 66.9168 45.6256V27.3756C66.9168 12.1673 60.8335 6.08398 45.6252 6.08398H27.3752C12.1668 6.08398 6.0835 12.1673 6.0835 27.3756V45.6256C6.0835 60.834 12.1668 66.9173 27.3752 66.9173Z" stroke="#9C9CA4" stroke-width="2.5" stroke-linecap="round" stroke-linejoin="round"/>
    <path d="M27.3748 30.4167C30.7346 30.4167 33.4582 27.6931 33.4582 24.3333C33.4582 20.9736 30.7346 18.25 27.3748 18.25C24.0151 18.25 21.2915 20.9736 21.2915 24.3333C21.2915 27.6931 24.0151 30.4167 27.3748 30.4167Z" stroke="#9C9CA4" stroke-width="2.5" stroke-linecap="round" stroke-linejoin="round"/>
    <path d="M8.12109 57.6394L23.1165 47.5715C25.5194 45.9594 28.9869 46.1419 31.1465 47.9973L32.1503 48.8794C34.5228 50.9173 38.3553 50.9173 40.7278 48.8794L53.3811 38.0206C55.7536 35.9827 59.5861 35.9827 61.9586 38.0206L66.9165 42.279" stroke="#9C9CA4" stroke-width="2.5" stroke-linecap="round" stroke-linejoin="round"/>
    </svg>
    