<svg width="44" height="44" viewBox="0 0 44 44" fill="none" xmlns="http://www.w3.org/2000/svg">
    <path d="M17.5448 22.8438L11.9531 28.4354" stroke="#2C3439" stroke-width="1.5" stroke-miterlimit="10" stroke-linecap="round" stroke-linejoin="round"/>
    <path d="M12.0083 22.8984L17.6 28.4901" stroke="#2C3439" stroke-width="1.5" stroke-miterlimit="10" stroke-linecap="round" stroke-linejoin="round"/>
    <path d="M24.8052 25.666H24.8227" stroke="#2C3439" stroke-width="2" stroke-miterlimit="10" stroke-linecap="round" stroke-linejoin="round"/>
    <path d="M32.0283 25.666H32.0458" stroke="#2C3439" stroke-width="2" stroke-miterlimit="10" stroke-linecap="round" stroke-linejoin="round"/>
    <path d="M28.4165 29.2948V29.2598" stroke="#2C3439" stroke-width="2" stroke-miterlimit="10" stroke-linecap="round" stroke-linejoin="round"/>
    <path d="M28.4165 22.0721V22.0371" stroke="#2C3439" stroke-width="2" stroke-miterlimit="10" stroke-linecap="round" stroke-linejoin="round"/>
    <path d="M16.5001 40.3333H27.5001C36.6667 40.3333 40.3334 36.6667 40.3334 27.5V23.8333C40.3334 14.6667 36.6667 11 27.5001 11H16.5001C7.33341 11 3.66675 14.6667 3.66675 23.8333V27.5C3.66675 36.6667 7.33341 40.3333 16.5001 40.3333Z" stroke="#2C3439" stroke-width="1.5" stroke-linecap="round" stroke-linejoin="round"/>
    <path d="M23.8516 3.66602L23.8332 5.51768C23.8149 6.52602 23.0082 7.33268 21.9999 7.33268H21.9449C20.9366 7.33268 20.1299 8.15768 20.1299 9.16602C20.1299 10.1743 20.9549 10.9993 21.9632 10.9993H23.7965" stroke="#2C3439" stroke-width="1.5" stroke-linecap="round" stroke-linejoin="round"/>
    </svg>
    