<svg width="18" height="18" viewBox="0 0 18 18" fill="none" xmlns="http://www.w3.org/2000/svg">
<path d="M7.53739 1.89844L3.02239 4.84594C1.57489 5.79094 1.57489 7.90594 3.02239 8.85094L7.53739 11.7984C8.34739 12.3309 9.68239 12.3309 10.4924 11.7984L14.9849 8.85094C16.4249 7.90594 16.4249 5.79844 14.9849 4.85344L10.4924 1.90594C9.68239 1.36594 8.34739 1.36594 7.53739 1.89844Z" stroke="#9C9CA4" stroke-linecap="round" stroke-linejoin="round"/>
<path d="M4.22259 9.81055L4.21509 13.328C4.21509 14.2805 4.95009 15.3005 5.85009 15.6005L8.24259 16.3955C8.65509 16.5305 9.33759 16.5305 9.75759 16.3955L12.1501 15.6005C13.0501 15.3005 13.7851 14.2805 13.7851 13.328V9.84805" stroke="#9C9CA4" stroke-linecap="round" stroke-linejoin="round"/>
<path d="M16.05 11.25V6.75" stroke="#9C9CA4" stroke-linecap="round" stroke-linejoin="round"/>
</svg>
